
        <svg xmlns="http://www.w3.org/2000/svg" xmlns:xlink="http://www.w3.org/1999/xlink" version="1.1" width="3139.759149692447" 
        height="524.1352477760955" viewBox="0 0 3139.759149692447 524.1352477760955">
			
			<g transform="scale(6.987957484622348) translate(10, 10)">
				<defs id="SvgjsDefs13153"></defs><g id="SvgjsG13154" featureKey="monogramFeature-0" transform="matrix(1.3,0,0,1.3,340,-23.400000000000002)" fill="#5cabcf"><path d="M8.88 60 c-7.8 0 -8.88 -5.22 -8.88 -10.98 l0 -22.32 c0 -5.82 2.94 -8.7 8.76 -8.7 c6.96 0 9.6 2.4 9.6 8.7 l0 22.32 c0 5.58 -0.06 10.98 -9.48 10.98 z M8.76 22.14 c-3.66 0 -4.62 0.96 -4.62 4.56 l0 22.32 c0 6.24 1.38 6.84 4.74 6.84 c3.48 0 4.38 -0.72 4.68 -1.2 c0.66 -1.14 0.66 -3.3 0.66 -5.64 l0 -22.32 c0 -2.64 -0.42 -3.3 -0.84 -3.72 c-0.66 -0.54 -2.22 -0.84 -4.62 -0.84 z M60.480000000000004 60 c-4.38 0 -9.54 -3.12 -15.42 -9.3 l0 1.74 c0 2.22 -0.9 7.56 -9 7.56 c-8.46 0 -9.36 -5.34 -9.36 -7.56 l0 -21.9 c0 -6.24 -0.06 -12.54 8.34 -12.54 c4.68 0 10.56 4.62 15.3 9.54 l0 -1.98 c0 -2.82 1.2 -7.56 9.24 -7.56 c5.76 0 9.12 3 9.12 7.8 l0 23.58 c0 5.82 -0.6 10.62 -8.22 10.62 z M45.06 36.72 l0 7.8 c6.24 7.44 11.58 11.34 15.42 11.34 c2.7 0 3.18 -0.72 3.36 -1.02 c0.66 -1.02 0.72 -3.24 0.72 -5.46 l0 -23.58 c0 -0.9 0 -3.66 -4.98 -3.66 c-5.04 0 -5.1 2.16 -5.1 3.42 l0 6.54 c2.22 2.58 3.84 4.8 4.74 6.06 c1.68 2.34 1.98 4.86 0.96 6.78 c-2.22 4.5 -9.84 3.6 -9.84 -3.66 l0 -7.62 c-6.48 -7.26 -11.94 -11.52 -15.3 -11.52 c-3.6 0 -4.2 0.72 -4.2 8.4 l0 21.9 c0 1.2 0 3.42 5.22 3.42 c4.8 0 4.86 -2.22 4.86 -3.42 l0 -6.42 c-2.22 -2.64 -3.84 -4.98 -4.74 -6.12 c-1.74 -2.46 -2.04 -4.8 -1.02 -6.96 c2.4 -4.5 9.9 -3.66 9.9 3.78 z M54.480000000000004 38.7 c0 2.1 -0.3 4.8 1.2 4.8 c0.42 0 0.72 -0.18 0.84 -0.48 c0.66 -1.14 -1.08 -3.06 -2.04 -4.32 z M38.879999999999995 34.86 c-0.66 1.32 1.08 3.06 2.04 4.5 l0 -2.64 c0 -3 -1.56 -2.64 -2.04 -1.86 z"></path></g><g id="SvgjsG13155" featureKey="nameFeature-0" transform="matrix(1.8883041839436936,0,0,1.8883041839436936,-4.380865130484665,-20.526666976627226)" fill="#0e76a8"><path d="M2.32 40 l0 -28.6 l10.68 0 l0 20.44 l9.64 0 l0 8.16 l-20.32 0 z M30.008000000000003 40 l0 -28.6 l10.76 0 l0 28.6 l-10.76 0 z M49.296 40 l0 -28.6 l11.88 0 l6.2 13.28 l0 -13.28 l9.44 0 l0 28.6 l-10.12 0 l-7.92 -15.6 l0 15.6 l-9.48 0 z M85.264 40 l0 -28.6 l10.68 0 l0 9.76 l6.64 -9.76 l10.96 0 l-9.32 13 l9.84 15.6 l-12.2 0 l-5.92 -10.28 l0 10.28 l-10.68 0 z M120.312 40 l0 -28.6 l21.36 0 l0 8.12 l-10.76 0 l0 2.44 l8.48 0 l0 7.36 l-8.48 0 l0 2.56 l11.36 0 l0 8.12 l-21.96 0 z M160.16 31.880000000000003 l0.84 0 c3.6 0 4.96 -1.6 4.96 -6.04 l0 -0.32 c0 -4.84 -1.6 -6 -5.04 -6 l-0.76 0 l0 12.36 z M149.48 40 l0 -28.6 l11.84 0 c10.36 0 15.76 4.56 15.76 13.92 l0 0.28 c0 9.44 -5.6 14.4 -15.72 14.4 l-11.88 0 z"></path></g>
			</g>
		</svg>
	