
        <svg xmlns="http://www.w3.org/2000/svg" xmlns:xlink="http://www.w3.org/1999/xlink" version="1.1" width="3162.3083859332733" height="462.41313084704683" viewBox="0 0 3162.3083859332733 462.41313084704683">
			
			<g transform="scale(8.11541929666366) translate(10, 10)">
				<defs id="SvgjsDefs6624"/><g id="SvgjsG6625" featureKey="symbolFeature-0" transform="matrix(0.7291666666666667,0,0,0.7291666666666667,-7.291666666666668,-18.547465006510418)" fill="#000"><path xmlns="http://www.w3.org/2000/svg" d="M21.5292969,48.4946289c6.3569336,0,11.5288086-5.171875,11.5288086-11.5292969  c0-6.3569336-5.171875-11.5288086-11.5288086-11.5288086C15.171875,25.4365234,10,30.6083984,10,36.965332  C10,43.3227539,15.171875,48.4946289,21.5292969,48.4946289z M21.5292969,27.4365234  c5.2543945,0,9.5288086,4.2744141,9.5288086,9.5288086s-4.2744141,9.5292969-9.5288086,9.5292969S12,42.2197266,12,36.965332  S16.2749023,27.4365234,21.5292969,27.4365234z"/><path xmlns="http://www.w3.org/2000/svg" d="M50.0009766,48.4946289c6.3569336,0,11.5288086-5.171875,11.5288086-11.5292969  c0-6.3569336-5.171875-11.5288086-11.5288086-11.5288086c-6.3574219,0-11.5292969,5.171875-11.5292969,11.5288086  C38.4716797,43.3227539,43.6435547,48.4946289,50.0009766,48.4946289z M50.0009766,27.4365234  c5.2543945,0,9.5288086,4.2744141,9.5288086,9.5288086s-4.2744141,9.5292969-9.5288086,9.5292969  s-9.5292969-4.2749023-9.5292969-9.5292969S44.746582,27.4365234,50.0009766,27.4365234z"/><path xmlns="http://www.w3.org/2000/svg" d="M78.4707031,48.4946289C84.828125,48.4946289,90,43.3227539,90,36.965332  c0-6.3569336-5.171875-11.5288086-11.5292969-11.5288086c-6.3569336,0-11.5288086,5.171875-11.5288086,11.5288086  C66.9418945,43.3227539,72.1137695,48.4946289,78.4707031,48.4946289z M78.4707031,27.4365234  C83.7250977,27.4365234,88,31.7109375,88,36.965332s-4.2749023,9.5292969-9.5292969,9.5292969  s-9.5288086-4.2749023-9.5288086-9.5292969S73.2163086,27.4365234,78.4707031,27.4365234z"/><path xmlns="http://www.w3.org/2000/svg" d="M24.2358398,64.6220703c0,6.3574219,5.171875,11.5292969,11.5292969,11.5292969  c6.3569336,0,11.5288086-5.171875,11.5288086-11.5292969c0-6.3569336-5.171875-11.5288086-11.5288086-11.5288086  C29.4077148,53.0932617,24.2358398,58.2651367,24.2358398,64.6220703z M35.7651367,55.0932617  c5.2543945,0,9.5288086,4.2744141,9.5288086,9.5288086s-4.2744141,9.5292969-9.5288086,9.5292969  s-9.5292969-4.2749023-9.5292969-9.5292969S30.5107422,55.0932617,35.7651367,55.0932617z"/><path xmlns="http://www.w3.org/2000/svg" d="M52.7075195,64.6220703c0,6.3574219,5.171875,11.5292969,11.5292969,11.5292969  c6.3569336,0,11.5288086-5.171875,11.5288086-11.5292969c0-6.3569336-5.171875-11.5288086-11.5288086-11.5288086  C57.8793945,53.0932617,52.7075195,58.2651367,52.7075195,64.6220703z M64.2368164,55.0932617  c5.2543945,0,9.5288086,4.2744141,9.5288086,9.5288086s-4.2744141,9.5292969-9.5288086,9.5292969  s-9.5292969-4.2749023-9.5292969-9.5292969S58.9824219,55.0932617,64.2368164,55.0932617z"/></g><g id="SvgjsG6626" featureKey="nameFeature-0" transform="matrix(1.271028299219886,0,0,1.271028299219886,74.3394389588626,-14.252337166344544)" fill="#000"><path d="M20.48 18.44 l-11.2 0 l0 4.36 l8.04 0 l0 6.4 l-8.04 0 l0 10.8 l-6.4 0 l0 -28 l17.6 0 l0 6.44 z M30.482999999999997 12 l0 28 l-6.4 0 l0 -28 l6.4 0 z M45.086 28.48 l4.6 -16.48 l6.4 0 l-7.8 28 l-6.4 0 l-7.8 -28 l6.4 0 z M77.289 18.44 l-11.2 0 l0 4.36 l8.04 0 l0 6.4 l-8.04 0 l0 4.4 l11.2 0 l0 6.4 l-17.6 0 l0 -28 l17.6 0 l0 6.44 z M103.25500000000001 12 l6.4 0 l0 28 l-6.4 0 l0 -12.52 l-4.08 9.84 l-2.04 0 l-4.08 -9.84 l0 12.52 l-6.4 0 l0 -28 l6.4 0 l5.08 12.28 z M119.65800000000002 12 l0 28 l-6.4 0 l0 -28 l6.4 0 z M136.661 12 l6.4 0 l0 28 l-6.4 0 l-7 -14.56 l0 14.56 l-6.4 0 l0 -28 l6.4 0 l7 14.6 l0 -14.6 z M160.06400000000002 33.6 l0 -21.6 l6.4 0 l0 23.04 c0 2.76 -2.24 4.96 -5 4.96 l-9.84 0 c-2.76 0 -4.96 -2.2 -4.96 -4.96 l0 -23.04 l6.4 0 l0 21.6 l7 0 z M170.067 12 l19.84 0 l0 6.44 l-6.72 0 l0 21.56 l-6.4 0 l0 -21.56 l-6.72 0 l0 -6.44 z M211.11 18.44 l-11.2 0 l0 4.36 l8.04 0 l0 6.4 l-8.04 0 l0 4.4 l11.2 0 l0 6.4 l-17.6 0 l0 -28 l17.6 0 l0 6.44 z M227.35300000000004 22.8 c2.76 0 5 2.24 5 5 l0 7.24 c0 2.76 -2.24 4.96 -5 4.96 l-12.64 0 l0 -6.4 l11.2 0 l0 -4.36 l-6.24 0 c-2.76 0 -4.96 -2.24 -4.96 -5 l0 -7.24 c0 -2.76 2.24 -5 4.96 -5 l12.68 0 l0 6.44 l-11.24 0 l0 4.36 l6.24 0 z"/></g>
			</g>
		</svg>
	