
        <svg xmlns="http://www.w3.org/2000/svg" xmlns:xlink="http://www.w3.org/1999/xlink" version="1.1" width="3163.1676275426953" 
        height="1161.4362377171035" viewBox="0 -18.682693353638637 3163.1676275426953 1161.4362377171035">
			<rect fill="#fff" width="3163.1676275426953" height="1161.4362377171035"/>
			<g transform="scale(8.158381377134775) translate(10, 10)">
				<defs id="SvgjsDefs6564"></defs><g id="SvgjsG6565" featureKey="nYIUkx-0" transform="matrix(1.3122342560971758,0,0,1.3122342560971758,-25.572048456870085,-7.868662255079665)" fill="#c12f2f"><g xmlns="http://www.w3.org/2000/svg"><path fill="none" d="M65.523,5.75H34.478c-3.235,0-5.87,2.633-5.87,5.87v76.76c0,3.237,2.635,5.87,5.87,5.87h31.045   c3.235,0,5.869-2.633,5.869-5.87V11.62C71.393,8.383,68.759,5.75,65.523,5.75z M58.846,9.725c0.423,0,0.766,0.343,0.766,0.767   c0,0.423-0.343,0.767-0.766,0.767c-0.424,0-0.768-0.343-0.768-0.767C58.078,10.068,58.422,9.725,58.846,9.725z M47.011,9.742h5.977   c0.414,0,0.75,0.336,0.75,0.75s-0.336,0.75-0.75,0.75h-5.977c-0.414,0-0.75-0.336-0.75-0.75S46.597,9.742,47.011,9.742z    M56.053,90.232H43.947c-0.413,0-0.75-0.336-0.75-0.75s0.337-0.75,0.75-0.75h12.105c0.414,0,0.75,0.336,0.75,0.75   S56.467,90.232,56.053,90.232z M68.282,84.343L68.282,84.343c-0.001,0.216-0.226,0.392-0.505,0.392H32.223   c-0.279,0-0.504-0.176-0.504-0.392V15.556c0-0.216,0.225-0.391,0.504-0.391h35.554c0.279,0,0.505,0.175,0.505,0.391V84.343z"></path><circle cx="58.846" cy="10.492" r="0.767"></circle><path d="M67.777,15.165H32.223c-0.279,0-0.504,0.175-0.504,0.391v68.787c0,0.216,0.225,0.392,0.504,0.392h35.554   c0.279,0,0.504-0.176,0.504-0.392h0.001V15.556C68.282,15.34,68.057,15.165,67.777,15.165z M55.868,50.75h-1.199   c-0.414,0-0.75-0.336-0.75-0.75s0.336-0.75,0.75-0.75h1.199c0.413,0,0.75,0.336,0.75,0.75S56.281,50.75,55.868,50.75z M50,53.581   c-1.975,0-3.58-1.606-3.58-3.58c0-1.975,1.605-3.58,3.58-3.58c1.975,0,3.58,1.605,3.58,3.58C53.58,51.975,51.975,53.581,50,53.581z    M50.75,54.67v1.199c0,0.414-0.336,0.75-0.75,0.75s-0.75-0.336-0.75-0.75V54.67c0-0.414,0.336-0.75,0.75-0.75   S50.75,54.256,50.75,54.67z M45.33,49.25c0.414,0,0.75,0.336,0.75,0.75s-0.336,0.75-0.75,0.75h-1.198   c-0.414,0-0.75-0.336-0.75-0.75s0.336-0.75,0.75-0.75H45.33z M45.319,45.319c0.293-0.293,0.769-0.293,1.062-0.001l0.849,0.849   c0.293,0.293,0.293,0.768,0,1.061c-0.148,0.147-0.339,0.221-0.531,0.221c-0.191,0-0.385-0.073-0.53-0.22l-0.85-0.848   C45.026,46.088,45.026,45.613,45.319,45.319z M45.321,53.619l0.849-0.85c0.292-0.293,0.767-0.293,1.061-0.002   c0.293,0.293,0.293,0.77,0,1.062l-0.848,0.85c-0.149,0.147-0.34,0.219-0.532,0.219c-0.19,0-0.384-0.071-0.53-0.219   C45.028,54.387,45.028,53.912,45.321,53.619z M49.25,45.331v-1.199c0-0.414,0.336-0.75,0.75-0.75s0.75,0.336,0.75,0.75v1.199   c0,0.415-0.336,0.75-0.75,0.75S49.25,45.745,49.25,45.331z M52.771,46.167l0.85-0.849c0.293-0.293,0.768-0.293,1.061,0   s0.293,0.769,0,1.062l-0.848,0.848c-0.148,0.147-0.34,0.221-0.532,0.221s-0.384-0.073-0.53-0.221   C52.479,46.935,52.479,46.46,52.771,46.167z M52.771,52.77c0.293-0.293,0.769-0.293,1.062,0l0.849,0.849   c0.293,0.293,0.293,0.768,0,1.062c-0.148,0.147-0.34,0.219-0.533,0.219c-0.19,0-0.383-0.071-0.528-0.219l-0.849-0.849   C52.479,53.538,52.479,53.062,52.771,52.77z M59.63,60.503c-0.304,0.279-0.778,0.261-1.062-0.046   c-0.278-0.307-0.26-0.78,0.047-1.061c2.628-2.41,4.135-5.836,4.135-9.396c0-7.03-5.721-12.75-12.75-12.75   c-7.03,0-12.75,5.72-12.75,12.75c0,7.029,5.72,12.75,12.75,12.75c1.675,0,3.302-0.318,4.836-0.95   c0.387-0.155,0.822,0.026,0.979,0.409c0.158,0.383-0.023,0.82-0.407,0.979C53.689,63.893,51.871,64.25,50,64.25   c-7.857,0-14.25-6.395-14.25-14.25c0-7.857,6.393-14.25,14.25-14.25c7.855,0,14.25,6.393,14.25,14.25   C64.25,53.98,62.564,57.811,59.63,60.503z"></path><path d="M50,47.92c-1.146,0-2.08,0.933-2.08,2.08c0,1.146,0.934,2.08,2.08,2.08c1.146,0,2.08-0.934,2.08-2.08   C52.08,48.853,51.146,47.92,50,47.92z"></path><path d="M65.523,4.25H34.478c-4.062,0-7.37,3.306-7.37,7.37v76.76c0,4.063,3.308,7.37,7.37,7.37h31.043   c4.064,0,7.371-3.307,7.371-7.37V11.62C72.893,7.556,69.586,4.25,65.523,4.25z M71.393,88.38c0,3.237-2.634,5.87-5.869,5.87H34.478   c-3.235,0-5.87-2.633-5.87-5.87V11.62c0-3.237,2.635-5.87,5.87-5.87h31.045c3.235,0,5.869,2.633,5.869,5.87V88.38z"></path><path d="M47.011,11.242h5.977c0.414,0,0.75-0.336,0.75-0.75s-0.336-0.75-0.75-0.75h-5.977c-0.414,0-0.75,0.336-0.75,0.75   S46.597,11.242,47.011,11.242z"></path><path d="M56.052,88.732H43.947c-0.413,0-0.75,0.336-0.75,0.75s0.337,0.75,0.75,0.75h12.106c0.414,0,0.749-0.336,0.749-0.75   S56.466,88.732,56.052,88.732z"></path></g></g><g id="SvgjsG6566" featureKey="PXhRQw-0" transform="matrix(3.0690405447845155,0,0,3.0690405447845155,84.38619174469984,15.120279930550307)" fill="#016565"><path d="M3.38 18.2 l-0.26 1.8 l-2.92 0 l2.62 -14.5 l3.1 0 l2.62 14.5 l-2.92 0 l-0.26 -1.8 l-1.98 0 z M3.7 15.9 l1.34 0 l-0.66 -5.14 z M11.459999999999999 20 c-0.84 0 -1.4267 -0.17334 -1.76 -0.52 s-0.5 -0.92 -0.5 -1.72 l0 -10.48 c0 -0.57334 0.16334 -1.0133 0.49 -1.32 s0.73 -0.46 1.21 -0.46 l3.82 0 l0.5 2.7 l-2.78 0 c-0.17334 0 -0.26 0.09334 -0.26 0.28 l0 8.54 c0 0.18666 0.08666 0.28 0.26 0.28 l2.78 0 l-0.52 2.7 l-3.24 0 z M18.42 20 c-0.84 0 -1.4267 -0.17334 -1.76 -0.52 s-0.5 -0.92 -0.5 -1.72 l0 -10.48 c0 -0.57334 0.16334 -1.0133 0.49 -1.32 s0.73 -0.46 1.21 -0.46 l3.82 0 l0.5 2.7 l-2.78 0 c-0.17334 0 -0.26 0.09334 -0.26 0.28 l0 8.54 c0 0.18666 0.08666 0.28 0.26 0.28 l2.78 0 l-0.52 2.7 l-3.24 0 z M25.44 20 c-0.84 0 -1.4267 -0.17334 -1.76 -0.52 s-0.5 -0.92 -0.5 -1.72 l0 -12.26 l2.96 0 l0 11.64 c0 0.10666 0.01666 0.18666 0.05 0.24 s0.11 0.08 0.23 0.08 l1.02 0 c0.12 0 0.19666 -0.02666 0.23 -0.08 s0.05 -0.13334 0.05 -0.24 l0 -11.64 l2.96 0 l0 12.26 c0 0.8 -0.16666 1.3733 -0.5 1.72 s-0.92 0.52 -1.76 0.52 l-2.98 0 z M43.24 5.5 l2.96 0 l-2.28 14.5 l-2.64 0 l-1.2 -7.56 l-1.18 7.56 l-2.64 0 l-2.28 -14.5 l2.96 0 l0.92 8.44 l1.18 -8.44 l2.1 0 l1.16 8.44 z M47.00000000000001 5.5 l5.64 0 l0.5 2.7 l-3.16 0 l0 3.44 l2.4 0 l0 2.5 l-2.4 0 l0 3.16 l3.04 0 l-0.5 2.7 l-5.52 0 l0 -14.5 z M56.80000000000001 18.2 l-0.26 1.8 l-2.92 0 l2.62 -14.5 l3.1 0 l2.62 14.5 l-2.92 0 l-0.26 -1.8 l-1.98 0 z M57.12000000000001 15.9 l1.34 0 l-0.66 -5.14 z M67.28 5.5 l0.72 2.7 l-1.94 0 l0 11.8 l-2.96 0 l0 -11.8 l-1.94 0 l0.76 -2.7 l5.36 0 z M76.3 20 l-2.96 0 l0 -5.8 l-1.58 0 l0 5.8 l-2.96 0 l0 -14.5 l2.96 0 l0 6.2 l1.58 0 l0 -6.2 l2.96 0 l0 14.5 z M77.5 5.5 l5.64 0 l0.5 2.7 l-3.16 0 l0 3.44 l2.4 0 l0 2.5 l-2.4 0 l0 3.16 l3.04 0 l-0.5 2.7 l-5.52 0 l0 -14.5 z M87.54 8.04 l0 5 l1.42 0 c0.18666 0 0.28 -0.1 0.28 -0.3 l0 -4.4 c0 -0.2 -0.09334 -0.3 -0.28 -0.3 l-1.42 0 z M92.10000000000001 14.1 c0 0.32 -0.11 0.61334 -0.33 0.88 s-0.54334 0.4 -0.97 0.4 l1.52 4.62 l-3 0 l-1.4 -4.62 l-0.38 0 l0 4.62 l-2.9 0 l0 -14.5 l5.5 0 c0.68 0 1.1767 0.17 1.49 0.51 s0.47 0.79666 0.47 1.37 l0 6.72 z"></path></g><g id="SvgjsG6567" featureKey="mlRtrp-0" transform="matrix(0.7789951885999671,0,0,0.7789951885999671,88.92714479032662,82.13911254717318)" fill="#c12f2f"><path d="M14.463 10.3613 c-0.25391 -0.1237 -0.58916 -0.26372 -1.0059 -0.41997 s-0.88867 -0.30437 -1.416 -0.44434 s-1.1003 -0.25716 -1.7188 -0.35156 s-1.2532 -0.1416 -1.9043 -0.1416 c-0.52083 0 -0.96517 0.016279 -1.333 0.048828 s-0.67709 0.074863 -0.92774 0.12694 s-0.44922 0.1123 -0.5957 0.18066 s-0.25879 0.13835 -0.33691 0.20996 s-0.12858 0.14322 -0.15137 0.21483 s-0.03418 0.13672 -0.03418 0.19531 c0 0.19531 0.097656 0.36621 0.29297 0.5127 s0.46224 0.27669 0.80078 0.39063 s0.73242 0.22136 1.1816 0.32227 s0.9261 0.20508 1.4307 0.3125 s1.0254 0.22461 1.5625 0.35156 s1.0579 0.27507 1.5625 0.44434 s0.98145 0.36621 1.4307 0.59082 s0.8431 0.48665 1.1816 0.78613 s0.60547 0.64453 0.80078 1.0352 s0.29297 0.83659 0.29297 1.3379 c0 0.64453 -0.11394 1.1979 -0.3418 1.6602 s-0.53223 0.85286 -0.91309 1.1719 s-0.82194 0.57455 -1.3232 0.76661 s-1.0271 0.34018 -1.5771 0.44435 s-1.1067 0.17253 -1.6699 0.20508 s-1.0986 0.048828 -1.6064 0.048828 c-1.3281 0 -2.5569 -0.10905 -3.6865 -0.32715 s-2.1272 -0.4899 -2.9932 -0.81542 l0 -3.2031 c0.89192 0.49479 1.9092 0.88217 3.0518 1.1621 s2.3649 0.41992 3.667 0.41992 c0.76823 0 1.3948 -0.040693 1.8799 -0.12207 s0.86426 -0.18555 1.1377 -0.3125 s0.45898 -0.2653 0.55664 -0.41504 s0.14648 -0.29297 0.14648 -0.42969 c0 -0.21484 -0.097656 -0.40202 -0.29297 -0.56152 s-0.46224 -0.29947 -0.80078 -0.41991 s-0.73242 -0.23111 -1.1816 -0.33202 s-0.9261 -0.20182 -1.4307 -0.30272 s-1.0237 -0.20996 -1.5576 -0.32715 s-1.053 -0.25554 -1.5576 -0.41504 s-0.98145 -0.34505 -1.4307 -0.55664 s-0.8431 -0.46225 -1.1816 -0.75196 s-0.60547 -0.625 -0.80078 -1.0059 s-0.29297 -0.82194 -0.29297 -1.3232 c0 -0.59245 0.10417 -1.1035 0.3125 -1.5332 s0.4899 -0.7959 0.84472 -1.0986 s0.76497 -0.54851 1.2305 -0.7373 s0.95541 -0.33528 1.4697 -0.43945 s1.0352 -0.17578 1.5625 -0.21484 s1.0286 -0.058594 1.5039 -0.058594 c0.52083 0 1.0563 0.026045 1.6064 0.078125 s1.0921 0.12532 1.626 0.21973 s1.0498 0.20346 1.5479 0.32716 s0.95866 0.25391 1.3818 0.39063 l0 3.1055 z M35.75585 20 l0 -13.418 l3.623 0 l0 10.479 l9.7949 0 l0 2.9395 l-13.418 0 z M86.1895625 13.300799999999999 c0 1.1523 -0.21159 2.1696 -0.63477 3.0518 s-1.0286 1.6194 -1.8164 2.2119 s-1.7432 1.04 -2.8662 1.3428 s-2.3845 0.4541 -3.7842 0.4541 s-2.6644 -0.15137 -3.7939 -0.4541 s-2.0915 -0.75032 -2.8857 -1.3428 s-1.4063 -1.3298 -1.8359 -2.2119 s-0.64453 -1.8994 -0.64453 -3.0518 s0.21484 -2.1696 0.64453 -3.0518 s1.0417 -1.6194 1.8359 -2.2119 s1.7562 -1.04 2.8857 -1.3428 s2.3942 -0.4541 3.7939 -0.4541 s2.6611 0.15137 3.7842 0.4541 s2.0784 0.75032 2.8662 1.3428 s1.3933 1.3298 1.8164 2.2119 s0.63477 1.8994 0.63477 3.0518 z M82.5275625 13.300799999999999 c0 -0.5013 -0.079756 -1.001 -0.23926 -1.499 s-0.44271 -0.94563 -0.84961 -1.3428 s-0.96191 -0.7194 -1.665 -0.9668 s-1.5983 -0.37109 -2.6855 -0.37109 c-0.72917 0 -1.3704 0.056963 -1.9238 0.1709 s-1.0319 0.27182 -1.4355 0.47364 s-0.74219 0.43783 -1.0156 0.70802 s-0.49153 0.5599 -0.6543 0.86915 s-0.27832 0.63151 -0.34668 0.9668 s-0.10254 0.66568 -0.10254 0.99121 c0 0.33203 0.03418 0.66731 0.10254 1.0059 s0.18392 0.66244 0.34668 0.97169 s0.38086 0.59733 0.6543 0.86426 s0.61198 0.49967 1.0156 0.69823 s0.88216 0.35481 1.4355 0.46875 s1.1946 0.1709 1.9238 0.1709 c1.0872 0 1.9824 -0.1237 2.6855 -0.37109 s1.2581 -0.56966 1.665 -0.9668 s0.69011 -0.84473 0.84961 -1.3428 s0.23926 -0.99775 0.23926 -1.499 z M114.884578125 6.24 c1.3151 0 2.5375 0.11229 3.667 0.33689 s2.1663 0.5127 3.1104 0.86426 l0 3.2813 c-0.37109 -0.20833 -0.78938 -0.41016 -1.2549 -0.60547 s-0.97168 -0.36784 -1.5186 -0.51758 s-1.1328 -0.27018 -1.7578 -0.36132 s-1.2825 -0.13672 -1.9727 -0.13672 c-0.85938 0 -1.6081 0.061846 -2.2461 0.18555 s-1.1849 0.28972 -1.6406 0.49805 s-0.83008 0.45084 -1.123 0.72753 s-0.52409 0.57129 -0.69336 0.88379 s-0.28646 0.63151 -0.35156 0.95703 s-0.097656 0.64127 -0.097656 0.94726 c0 0.26692 0.027666 0.55664 0.083008 0.86914 s0.15951 0.625 0.31251 0.9375 s0.36621 0.61198 0.63965 0.89844 s0.62988 0.54036 1.0693 0.76172 s0.96843 0.39877 1.5869 0.53224 s1.3542 0.2002 2.207 0.2002 c0.42969 0 0.80403 -0.013018 1.123 -0.039063 s0.61035 -0.061855 0.87402 -0.10743 s0.51106 -0.10092 0.74219 -0.16603 s0.47038 -0.13347 0.71777 -0.20508 l0 -1.6211 l-4.0625 0 l0 -2.9395 l7.6855 0 l0 6.8555 c-0.48177 0.16276 -1.0205 0.31088 -1.6162 0.44435 s-1.2109 0.2474 -1.8457 0.34181 s-1.2712 0.16765 -1.9092 0.21973 s-1.2402 0.078125 -1.8066 0.078125 c-0.87891 0 -1.722 -0.058594 -2.5293 -0.17578 s-1.5608 -0.29785 -2.2607 -0.54199 s-1.3379 -0.55501 -1.9141 -0.93262 s-1.0677 -0.82683 -1.4746 -1.3477 s-0.72266 -1.1182 -0.94727 -1.792 s-0.33691 -1.4307 -0.33691 -2.2705 c0 -0.83333 0.11719 -1.5886 0.35156 -2.2656 s0.56152 -1.2761 0.98145 -1.7969 s0.92448 -0.97005 1.5137 -1.3477 s1.237 -0.68848 1.9434 -0.93262 s1.4616 -0.4248 2.2656 -0.54199 s1.6325 -0.17578 2.4854 -0.17578 z M153.414203125 17.4609 l-7.4805 0 l-1.2598 2.5391 l-4.043 0 l7.0215 -13.418 l4.043 0 l7.0215 13.418 l-4.043 0 z M147.232403125 14.8437 l4.9023 0 l-2.4414 -4.9414 z M190.34140625 20 l-9.0527 -9.2188 l0 9.2188 l-3.623 0 l0 -13.418 l3.9355 0 l9.0625 9.2578 l0 -9.2578 l3.6035 0 l0 13.418 l-3.9258 0 z M247.009725 9.502 l0 10.498 l-3.623 0 l0 -10.498 l-5.6934 0 l0 -2.9199 l15.02 0 l0 2.9199 l-5.7031 0 z M271.8574125 20 l0 -13.418 l13.584 0 l0 2.8613 l-9.8633 0 l0 2.2168 l9.3555 0 l0 2.8613 l-9.3555 0 l0 2.6172 l10 0 l0 2.8613 l-13.721 0 z M314.7035625 13.1152 l6.3672 6.8848 l-4.3457 0 l-4.1992 -4.5215 l-4.1797 4.5215 l-4.3359 0 l6.3574 -6.8848 l-6.0449 -6.5332 l4.3457 0 l3.8574 4.1992 l3.877 -4.1992 l4.3457 0 z M347.714803125 9.502 l0 10.498 l-3.623 0 l0 -10.498 l-5.6934 0 l0 -2.9199 l15.02 0 l0 2.9199 l-5.7031 0 z"></path></g>
			</g>
		</svg>
	